Coordinates
version=1
nRows=12
nColumns=24
inDegrees=yes

Units are S.I. units (second, meters, Newtons, ...)
Angles are in degrees.

endheader
time	pelvis_tilt	pelvis_list	pelvis_rotation	pelvis_tx	pelvis_ty	pelvis_tz	hip_flexion_r	hip_adduction_r	hip_rotation_r	knee_angle_r	ankle_angle_r	subtalar_angle_r	mtp_angle_r	hip_flexion_l	hip_adduction_l	hip_rotation_l	knee_angle_l	ankle_angle_l	subtalar_angle_l	mtp_angle_l	lumbar_extension	lumbar_bending	lumbar_rotation
      1.38750000	      2.26074750	      3.16918340	     -1.13295117	      0.15715951	      1.02973956	      0.29101304	     15.32837590	     -6.89483659	     -9.49492407	    -70.83908601	    -14.73057654	     -9.29724665	      2.16811424	      8.21479193	      8.52445160	      3.51630804	    -14.82970633	      3.77392309	    -13.73585177	     -0.37025570	     -5.41250203	     -4.89624448	      4.09021464
      1.39166667	      2.32119709	      3.02291920	     -1.16869246	      0.16200894	      1.03062692	      0.29082130	     15.87572455	     -6.71282599	     -9.37957943	    -70.76408794	    -13.50132705	     -9.03538223	      2.22550123	      7.73795767	      8.38403307	      3.56020485	    -14.62529697	      3.91153879	    -13.72403866	     -0.38807903	     -5.54834617	     -4.70015210	      4.03682596
      1.39583333	      2.36487224	      2.88288163	     -1.19528813	      0.16684586	      1.03144807	      0.29061517	     16.43060507	     -6.53795491	     -9.27478469	    -70.64036333	    -12.31422892	     -8.76953875	      2.28176800	      7.27974054	      8.25191136	      3.61383224	    -14.41958762	      4.04460774	    -13.72230504	     -0.40650239	     -5.66675904	     -4.50960074	      3.97779656
      1.40000000	      2.42643291	      2.73521457	     -1.21218725	      0.17168538	      1.03229594	      0.29040012	     16.94429829	     -6.35433207	     -9.18602658	    -70.44727050	    -11.18184793	     -8.51669424	      2.33592775	      6.79520857	      8.11313153	      3.67748840	    -14.20108173	      4.17112897	    -13.72339241	     -0.42772255	     -5.80652865	     -4.30953663	      3.91127816
      1.40416667	      2.48524596	      2.59730443	     -1.22104149	      0.17651559	      1.03310207	      0.29017517	     17.44850624	     -6.18260308	     -9.10676144	    -70.20330607	    -10.10585470	     -8.27359837	      2.38693629	      6.31245584	      7.98557076	      3.74725476	    -13.97795245	      4.29173862	    -13.73273820	     -0.45131329	     -5.94301451	     -4.12221153	      3.83753353
      1.40833333	      2.52970367	      2.45278205	     -1.21087084	      0.18131736	      1.03385814	      0.28993096	     17.95144802	     -6.00432158	     -9.04913117	    -69.90093424	     -9.09496653	     -8.06156481	      2.43253988	      5.85318458	      7.85134029	      3.82763791	    -13.76922674	      4.40535555	    -13.74804160	     -0.47537723	     -6.08253340	     -3.93084546	      3.76029215
      1.41250000	      2.61094715	      2.31853252	     -1.20010176	      0.18613924	      1.03465037	      0.28968450	     18.39524066	     -5.84184750	     -9.00009773	    -69.53962253	     -8.14361410	     -7.85311193	      2.47392905	      5.33710753	      7.72857903	      3.91462018	    -13.52478068	      4.51577139	    -13.76066915	     -0.50206423	     -6.24452770	     -3.74723057	      3.67282580
      1.41666667	      2.67601426	      2.17939576	     -1.17143044	      0.19096421	      1.03539489	      0.28941325	     18.83567329	     -5.67698405	     -8.97406865	    -69.11620296	     -7.27553550	     -7.68922422	      2.50887413	      4.84034491	      7.60113533	      4.01165163	    -13.28577925	      4.62344325	    -13.77658743	     -0.52864707	     -6.39158092	     -3.56045225	      3.57718012
      1.42083333	      2.74600830	      2.05837461	     -1.13842277	      0.19577757	      1.03609923	      0.28913106	     19.25928366	     -5.53614223	     -8.95267908	    -68.64747731	     -6.46020368	     -7.52932041	      2.53952248	      4.33406968	      7.49315322	      4.11367960	    -13.03283615	      4.72719830	    -13.79355091	     -0.55837402	     -6.53757460	     -3.39289487	      3.46927860
      1.42500000	      2.82324616	      1.94742857	     -1.09689733	      0.20060893	      1.03679242	      0.28883923	     19.65505610	     -5.41066730	     -8.94441320	    -68.12209705	     -5.71139730	     -7.38050346	      2.56550671	      3.80911781	      7.39605097	      4.23023538	    -12.75668649	      4.82336961	    -13.81891370	     -0.59668064	     -6.68004229	     -3.23216407	      3.33714836
      1.42916667	      2.91743921	      1.82410765	     -1.03557195	      0.20540421	      1.03747994	      0.28853162	     20.00982393	     -5.27283796	     -8.95900128	    -67.53233350	     -5.02290011	     -7.29173405	      2.58547097	      3.27645122	      7.28377927	      4.34995259	    -12.50021940	      4.91716704	    -13.83914685	     -0.63304476	     -6.86659129	     -3.06606809	      3.21896203
      1.43333333	      2.98839524	      1.72553320	     -0.97079247	      0.21022390	      1.03808504	      0.28821188	     20.37661563	     -5.16688474	     -8.97733037	    -66.90097936	     -4.39120993	     -7.21615026	      2.60028668	      2.76102463	      7.19770265	      4.47606045	    -12.22599020	      5.00679146	    -13.86517516	     -0.67938647	     -7.00457709	     -2.91707615	      3.06687491
